<?xml version="1.0" encoding="utf-8"?>
<!-- Generator: Adobe Illustrator 24.0.0, SVG Export Plug-In . SVG Version: 6.00 Build 0)  -->
<svg version="1.1" id="Layer_1" xmlns="http://www.w3.org/2000/svg" xmlns:xlink="http://www.w3.org/1999/xlink" x="0px" y="0px"
	 viewBox="0 0 1000 1000" style="enable-background:new 0 0 1000 1000;" xml:space="preserve">
<style type="text/css">
	.st0{fill:#E8FCF3;}
	.st1{fill:#FFDCDC;}
	.st2{fill:#000B7F;}
	.st3{fill:url(#SVGID_1_);}
	.st4{fill:url(#SVGID_2_);}
	.st5{fill:url(#SVGID_3_);}
	.st6{opacity:0.5;}
	.st7{fill:url(#SVGID_4_);}
	.st8{fill:url(#SVGID_5_);}
	.st9{fill:url(#SVGID_6_);}
	.st10{fill:url(#SVGID_7_);}
	.st11{fill:url(#SVGID_8_);}
	.st12{fill:url(#SVGID_9_);}
	.st13{fill:url(#SVGID_10_);}
	.st14{clip-path:url(#SVGID_12_);}
	.st15{opacity:0;}
	.st16{fill:#109EFF;}
	.st17{opacity:0.0244;}
	.st18{opacity:0.0488;}
	.st19{opacity:0.0732;}
	.st20{opacity:0.0976;}
	.st21{opacity:0.122;}
	.st22{opacity:0.1463;}
	.st23{opacity:0.1707;}
	.st24{opacity:0.1951;}
	.st25{opacity:0.2195;}
	.st26{opacity:0.2439;}
	.st27{opacity:0.2683;}
	.st28{opacity:0.2927;}
	.st29{opacity:0.3171;}
	.st30{opacity:0.3415;}
	.st31{opacity:0.3659;}
	.st32{opacity:0.3902;}
	.st33{opacity:0.4146;}
	.st34{opacity:0.439;}
	.st35{opacity:0.4634;}
	.st36{opacity:0.4878;}
	.st37{opacity:0.5122;}
	.st38{opacity:0.5366;}
	.st39{opacity:0.561;}
	.st40{opacity:0.5854;}
	.st41{opacity:0.6098;}
	.st42{opacity:0.6341;}
	.st43{opacity:0.6585;}
	.st44{opacity:0.6829;}
	.st45{opacity:0.7073;}
	.st46{opacity:0.7317;}
	.st47{opacity:0.7561;}
	.st48{opacity:0.7805;}
	.st49{opacity:0.8049;}
	.st50{opacity:0.8293;}
	.st51{opacity:0.8537;}
	.st52{opacity:0.878;}
	.st53{opacity:0.9024;}
	.st54{opacity:0.9268;}
	.st55{opacity:0.9512;}
	.st56{opacity:0.9756;}
	.st57{clip-path:url(#SVGID_14_);}
	.st58{clip-path:url(#SVGID_16_);}
	.st59{fill:url(#SVGID_17_);}
	.st60{fill:url(#SVGID_18_);}
	.st61{fill:url(#SVGID_19_);}
	.st62{fill:url(#SVGID_20_);}
	.st63{fill:url(#SVGID_21_);}
	.st64{fill:url(#SVGID_22_);}
	.st65{fill:url(#SVGID_23_);}
	.st66{fill:url(#SVGID_24_);}
	.st67{fill:url(#SVGID_25_);}
</style>
<g>
	<defs>
		<path id="SVGID_11_" d="M418.22,436.26c-1.17,1.56-2.31,3.15-3.4,4.78c-11.05,16.56-17.54,36.65-17.54,58.32
			c0,52.88,38.56,96.4,88.09,101.98l12.25,0.58c-4.12-0.04-8.21-0.24-12.25-0.58c3.55,0.4,7.14,0.62,10.79,0.62
			c0.49,0,0.97-0.03,1.46-0.04c0.51,0,1.01,0.04,1.51,0.04c39.54,0,75.81-14.03,104.09-37.39c36.33-30,59.48-75.39,59.48-126.18
			c0-8.43-0.64-16.71-1.87-24.8c-11.07-72.74-70.05-129.71-143.74-137.76c115.01,10.57,205.09,107.25,205.09,225.02
			c0,36.54-8.72,71.02-24.12,101.56c-5.21,11.21-11.65,21.72-19.16,31.38c7.2-9.88,13.61-20.37,19.16-31.38l-19.16,31.38
			c-29.92,38.52-76.66,63.34-129.22,63.34c-18.76,0-36.75-3.2-53.53-9.01c-56.49-19.56-98.95-69.18-108.17-129.76
			c-1.23-8.09-1.87-16.37-1.87-24.8c0-34.35,10.61-66.2,28.69-92.52C415.93,439.43,417.06,437.83,418.22,436.26
			c0.37-0.5,0.75-0.99,1.13-1.49c0.28-0.36,0.56-0.72,0.84-1.07c-0.28,0.36-0.57,0.71-0.84,1.07
			C418.97,435.26,418.6,435.76,418.22,436.26z"/>
	</defs>
	<clipPath id="SVGID_1_">
		<use xlink:href="#SVGID_11_"  style="overflow:visible;"/>
	</clipPath>
	<g style="clip-path:url(#SVGID_1_);">
		<g class="st15">
			
				<rect x="817.73" y="9.85" transform="matrix(0.866 -0.5 0.5 0.866 -75.8565 459.3382)" class="st16" width="2.97" height="722.73"/>
		</g>
		<g class="st17">
			
				<rect x="805.84" y="16.63" transform="matrix(0.866 -0.5 0.5 0.866 -80.8188 454.3778)" class="st16" width="3.27" height="722.73"/>
		</g>
		<g class="st18">
			
				<rect x="793.95" y="23.41" transform="matrix(0.866 -0.5 0.5 0.866 -85.7831 449.4116)" class="st16" width="3.55" height="722.73"/>
		</g>
		<g class="st19">
			
				<rect x="782.06" y="30.19" transform="matrix(0.866 -0.5 0.5 0.866 -90.7455 444.4488)" class="st16" width="3.84" height="722.73"/>
		</g>
		<g class="st20">
			
				<rect x="770.17" y="36.97" transform="matrix(0.866 -0.5 0.5 0.866 -95.7094 439.4886)" class="st16" width="4.13" height="722.73"/>
		</g>
		<g class="st21">
			
				<rect x="758.28" y="43.75" transform="matrix(0.866 -0.5 0.5 0.866 -100.6721 434.5221)" class="st16" width="4.43" height="722.73"/>
		</g>
		<g class="st22">
			
				<rect x="746.39" y="50.53" transform="matrix(0.866 -0.5 0.5 0.866 -105.636 429.5619)" class="st16" width="4.72" height="722.73"/>
		</g>
		<g class="st23">
			
				<rect x="734.51" y="57.31" transform="matrix(0.866 -0.5 0.5 0.866 -110.5987 424.5954)" class="st16" width="5" height="722.73"/>
		</g>
		<g class="st24">
			
				<rect x="722.62" y="64.09" transform="matrix(0.866 -0.5 0.5 0.866 -115.5618 419.6311)" class="st16" width="5.29" height="722.74"/>
		</g>
		<g class="st25">
			
				<rect x="710.73" y="70.87" transform="matrix(0.866 -0.5 0.5 0.866 -120.5251 414.6724)" class="st16" width="5.59" height="722.73"/>
		</g>
		<g class="st26">
			
				<rect x="698.84" y="77.65" transform="matrix(0.866 -0.5 0.5 0.866 -125.4883 409.7045)" class="st16" width="5.88" height="722.74"/>
		</g>
		<g class="st27">
			
				<rect x="686.95" y="84.43" transform="matrix(0.866 -0.5 0.5 0.866 -130.4518 404.7457)" class="st16" width="6.17" height="722.73"/>
		</g>
		<g class="st28">
			
				<rect x="675.07" y="91.21" transform="matrix(0.866 -0.5 0.5 0.866 -135.414 399.7765)" class="st16" width="6.46" height="722.73"/>
		</g>
		<g class="st29">
			
				<rect x="663.18" y="97.99" transform="matrix(0.866 -0.5 0.5 0.866 -140.378 394.8169)" class="st16" width="6.75" height="722.73"/>
		</g>
		<g class="st30">
			
				<rect x="651.29" y="104.77" transform="matrix(0.866 -0.5 0.5 0.866 -145.3409 389.8561)" class="st16" width="7.04" height="722.73"/>
		</g>
		<g class="st31">
			
				<rect x="639.4" y="111.55" transform="matrix(0.866 -0.5 0.5 0.866 -150.3046 384.8902)" class="st16" width="7.33" height="722.73"/>
		</g>
		<g class="st32">
			
				<rect x="627.51" y="118.33" transform="matrix(0.866 -0.5 0.5 0.866 -155.2675 379.9294)" class="st16" width="7.62" height="722.73"/>
		</g>
		<g class="st33">
			
				<rect x="615.62" y="125.11" transform="matrix(0.866 -0.5 0.5 0.866 -160.2312 374.9636)" class="st16" width="7.91" height="722.73"/>
		</g>
		<g class="st34">
			
				<rect x="603.74" y="131.89" transform="matrix(0.866 -0.5 0.5 0.866 -165.1936 370.0008)" class="st16" width="8.2" height="722.73"/>
		</g>
		<g class="st35">
			
				<rect x="591.85" y="138.67" transform="matrix(0.866 -0.5 0.5 0.866 -170.1581 365.0403)" class="st16" width="8.49" height="722.73"/>
		</g>
		<g class="st36">
			
				<rect x="579.96" y="145.45" transform="matrix(0.866 -0.5 0.5 0.866 -175.1209 360.0743)" class="st16" width="8.78" height="722.73"/>
		</g>
		<g class="st37">
			
				<rect x="568.07" y="152.23" transform="matrix(0.866 -0.5 0.5 0.866 -180.0837 355.1119)" class="st16" width="9.07" height="722.74"/>
		</g>
		<g class="st38">
			
				<rect x="556.19" y="159.01" transform="matrix(0.866 -0.5 0.5 0.866 -185.0468 350.1474)" class="st16" width="9.36" height="722.73"/>
		</g>
		<g class="st39">
			
				<rect x="544.3" y="165.79" transform="matrix(0.866 -0.5 0.5 0.866 -190.0091 345.1846)" class="st16" width="9.64" height="722.73"/>
		</g>
		<g class="st40">
			
				<rect x="532.41" y="172.57" transform="matrix(0.866 -0.5 0.5 0.866 -194.9738 340.224)" class="st16" width="9.94" height="722.73"/>
		</g>
		<g class="st41">
			
				<rect x="520.52" y="179.35" transform="matrix(0.866 -0.5 0.5 0.866 -199.9357 335.258)" class="st16" width="10.23" height="722.73"/>
		</g>
		<g class="st42">
			
				<rect x="508.63" y="186.13" transform="matrix(0.866 -0.5 0.5 0.866 -204.9005 330.2973)" class="st16" width="10.52" height="722.73"/>
		</g>
		<g class="st43">
			
				<rect x="496.74" y="192.91" transform="matrix(0.866 -0.5 0.5 0.866 -209.8623 325.3313)" class="st16" width="10.8" height="722.73"/>
		</g>
		<g class="st44">
			
				<rect x="484.86" y="199.69" transform="matrix(0.866 -0.5 0.5 0.866 -214.8261 320.3689)" class="st16" width="11.1" height="722.73"/>
		</g>
		<g class="st45">
			
				<rect x="472.97" y="206.47" transform="matrix(0.866 -0.5 0.5 0.866 -219.7896 315.4078)" class="st16" width="11.39" height="722.73"/>
		</g>
		<g class="st46">
			
				<rect x="461.08" y="213.25" transform="matrix(0.866 -0.5 0.5 0.866 -224.7527 310.4422)" class="st16" width="11.68" height="722.73"/>
		</g>
		<g class="st47">
			
				<rect x="449.19" y="220.03" transform="matrix(0.866 -0.5 0.5 0.866 -229.7163 305.4811)" class="st16" width="11.97" height="722.73"/>
		</g>
		<g class="st48">
			
				<rect x="437.3" y="226.81" transform="matrix(0.866 -0.5 0.5 0.866 -234.678 300.514)" class="st16" width="12.26" height="722.74"/>
		</g>
		<g class="st49">
			
				<rect x="425.42" y="233.59" transform="matrix(0.866 -0.5 0.5 0.866 -239.6417 295.5528)" class="st16" width="12.55" height="722.73"/>
		</g>
		<g class="st50">
			
				<rect x="413.53" y="240.37" transform="matrix(0.866 -0.5 0.5 0.866 -244.6053 290.5916)" class="st16" width="12.84" height="722.73"/>
		</g>
		<g class="st51">
			
				<rect x="401.64" y="247.15" transform="matrix(0.866 -0.5 0.5 0.866 -249.5683 285.6261)" class="st16" width="13.13" height="722.73"/>
		</g>
		<g class="st52">
			
				<rect x="389.75" y="253.93" transform="matrix(0.866 -0.5 0.5 0.866 -254.532 280.6648)" class="st16" width="13.42" height="722.73"/>
		</g>
		<g class="st53">
			
				<rect x="377.86" y="260.71" transform="matrix(0.866 -0.5 0.5 0.866 -259.4959 275.7024)" class="st16" width="13.71" height="722.73"/>
		</g>
		<g class="st54">
			
				<rect x="365.98" y="267.49" transform="matrix(0.866 -0.5 0.5 0.866 -264.4572 270.7366)" class="st16" width="14" height="722.73"/>
		</g>
		<g class="st55">
			
				<rect x="354.09" y="274.27" transform="matrix(0.866 -0.5 0.5 0.866 -269.4225 265.7757)" class="st16" width="14.29" height="722.73"/>
		</g>
		<g class="st56">
			
				<rect x="342.2" y="281.05" transform="matrix(0.866 -0.5 0.5 0.866 -274.3838 260.81)" class="st16" width="14.58" height="722.73"/>
		</g>
		<g>
			
				<rect x="330.31" y="287.83" transform="matrix(0.866 -0.5 0.5 0.866 -279.3492 255.849)" class="st16" width="14.87" height="722.73"/>
		</g>
	</g>
</g>
<g>
	<defs>
		<path id="SVGID_13_" d="M481.25,600.69c1.94,0.24,3.88,0.43,5.84,0.55c19.87,1.29,40.51-3.13,59.27-13.97
			c45.8-26.44,64.21-81.59,44.27-127.28l-5.62-10.9c2.03,3.59,3.89,7.23,5.62,10.9c-1.43-3.27-3.04-6.5-4.86-9.66
			c-0.24-0.42-0.51-0.83-0.76-1.25c-0.25-0.44-0.47-0.89-0.72-1.33c-19.77-34.25-50.06-58.63-84.42-71.45
			c-44.15-16.46-95.03-13.82-139.01,11.58c-7.3,4.22-14.16,8.91-20.54,14.02c-57.46,45.95-77.31,125.52-47.44,193.36
			c-48.35-104.88-9.66-231.24,92.33-290.12c31.64-18.27,65.87-27.95,100.01-29.89c12.31-1.09,24.64-0.77,36.75,0.9
			c-12.16-1.3-24.45-1.6-36.75-0.9l36.75,0.9c48.33,6.65,93.18,34.72,119.46,80.23c9.38,16.24,15.61,33.43,18.96,50.86
			c11.3,58.71-10.44,120.28-58.29,158.55c-6.39,5.11-13.24,9.81-20.54,14.02c-29.74,17.17-62.64,23.92-94.47,21.41
			C485.14,601.09,483.19,600.92,481.25,600.69c-0.62-0.07-1.24-0.15-1.85-0.23c-0.45-0.06-0.9-0.12-1.35-0.19
			c0.45,0.06,0.9,0.14,1.35,0.19C480.02,600.55,480.63,600.62,481.25,600.69z"/>
	</defs>
	<clipPath id="SVGID_2_">
		<use xlink:href="#SVGID_13_"  style="overflow:visible;"/>
	</clipPath>
	<g style="clip-path:url(#SVGID_2_);">
		<g class="st15">
			
				<rect x="-136.94" y="284.46" transform="matrix(0.5 -0.866 0.866 0.5 -135.4241 337.3358)" class="st16" width="722.73" height="2.97"/>
		</g>
		<g class="st17">
			
				<rect x="-125.2" y="291.1" transform="matrix(0.5 -0.866 0.866 0.5 -135.4252 350.8965)" class="st16" width="722.73" height="3.27"/>
		</g>
		<g class="st18">
			
				<rect x="-113.45" y="297.73" transform="matrix(0.5 -0.866 0.866 0.5 -135.4242 364.4559)" class="st16" width="722.73" height="3.55"/>
		</g>
		<g class="st19">
			
				<rect x="-101.71" y="304.37" transform="matrix(0.5 -0.866 0.866 0.5 -135.4248 378.014)" class="st16" width="722.73" height="3.84"/>
		</g>
		<g class="st20">
			
				<rect x="-89.96" y="311" transform="matrix(0.5 -0.866 0.866 0.5 -135.4233 391.5762)" class="st16" width="722.73" height="4.13"/>
		</g>
		<g class="st21">
			
				<rect x="-78.22" y="317.64" transform="matrix(0.5 -0.866 0.866 0.5 -135.4249 405.1341)" class="st16" width="722.73" height="4.43"/>
		</g>
		<g class="st22">
			
				<rect x="-66.48" y="324.27" transform="matrix(0.5 -0.866 0.866 0.5 -135.4234 418.6964)" class="st16" width="722.73" height="4.72"/>
		</g>
		<g class="st23">
			
				<rect x="-54.74" y="330.91" transform="matrix(0.5 -0.866 0.866 0.5 -135.425 432.2542)" class="st16" width="722.73" height="5"/>
		</g>
		<g class="st24">
			
				<rect x="-42.99" y="337.54" transform="matrix(0.5 -0.866 0.866 0.5 -135.4245 445.8121)" class="st16" width="722.74" height="5.29"/>
		</g>
		<g class="st25">
			
				<rect x="-31.25" y="344.17" transform="matrix(0.5 -0.866 0.866 0.5 -135.424 459.3747)" class="st16" width="722.73" height="5.59"/>
		</g>
		<g class="st26">
			
				<rect x="-19.51" y="350.81" transform="matrix(0.5 -0.866 0.866 0.5 -135.4247 472.9321)" class="st16" width="722.74" height="5.88"/>
		</g>
		<g class="st27">
			
				<rect x="-7.76" y="357.45" transform="matrix(0.5 -0.866 0.866 0.5 -135.4241 486.4948)" class="st16" width="722.73" height="6.17"/>
		</g>
		<g class="st28">
			
				<rect x="3.98" y="364.08" transform="matrix(0.5 -0.866 0.866 0.5 -135.4263 500.0507)" class="st16" width="722.73" height="6.46"/>
		</g>
		<g class="st29">
			
				<rect x="15.72" y="370.71" transform="matrix(0.5 -0.866 0.866 0.5 -135.4239 513.6119)" class="st16" width="722.73" height="6.75"/>
		</g>
		<g class="st30">
			
				<rect x="27.46" y="377.35" transform="matrix(0.5 -0.866 0.866 0.5 -135.4247 527.1731)" class="st16" width="722.73" height="7.04"/>
		</g>
		<g class="st31">
			
				<rect x="39.21" y="383.98" transform="matrix(0.5 -0.866 0.866 0.5 -135.424 540.7321)" class="st16" width="722.73" height="7.33"/>
		</g>
		<g class="st32">
			
				<rect x="50.95" y="390.62" transform="matrix(0.5 -0.866 0.866 0.5 -135.4247 554.2933)" class="st16" width="722.73" height="7.62"/>
		</g>
		<g class="st33">
			
				<rect x="62.7" y="397.25" transform="matrix(0.5 -0.866 0.866 0.5 -135.4241 567.8522)" class="st16" width="722.73" height="7.91"/>
		</g>
		<g class="st34">
			
				<rect x="74.44" y="403.89" transform="matrix(0.5 -0.866 0.866 0.5 -135.4247 581.4102)" class="st16" width="722.73" height="8.2"/>
		</g>
		<g class="st35">
			
				<rect x="86.18" y="410.52" transform="matrix(0.5 -0.866 0.866 0.5 -135.4228 594.973)" class="st16" width="722.73" height="8.49"/>
		</g>
		<g class="st36">
			
				<rect x="97.93" y="417.16" transform="matrix(0.5 -0.866 0.866 0.5 -135.4235 608.531)" class="st16" width="722.73" height="8.78"/>
		</g>
		<g class="st37">
			
				<rect x="109.67" y="423.79" transform="matrix(0.5 -0.866 0.866 0.5 -135.4245 622.0912)" class="st16" width="722.74" height="9.07"/>
		</g>
		<g class="st38">
			
				<rect x="121.41" y="430.43" transform="matrix(0.5 -0.866 0.866 0.5 -135.4249 635.6504)" class="st16" width="722.73" height="9.36"/>
		</g>
		<g class="st39">
			
				<rect x="133.15" y="437.06" transform="matrix(0.5 -0.866 0.866 0.5 -135.4254 649.2084)" class="st16" width="722.73" height="9.64"/>
		</g>
		<g class="st40">
			
				<rect x="144.9" y="443.7" transform="matrix(0.5 -0.866 0.866 0.5 -135.4235 662.7715)" class="st16" width="722.73" height="9.94"/>
		</g>
		<g class="st41">
			
				<rect x="156.64" y="450.33" transform="matrix(0.5 -0.866 0.866 0.5 -135.4256 676.3286)" class="st16" width="722.73" height="10.23"/>
		</g>
		<g class="st42">
			
				<rect x="168.38" y="456.97" transform="matrix(0.5 -0.866 0.866 0.5 -135.4236 689.8917)" class="st16" width="722.73" height="10.52"/>
		</g>
		<g class="st43">
			
				<rect x="180.13" y="463.6" transform="matrix(0.5 -0.866 0.866 0.5 -135.4256 703.4487)" class="st16" width="722.73" height="10.8"/>
		</g>
		<g class="st44">
			
				<rect x="191.87" y="470.24" transform="matrix(0.5 -0.866 0.866 0.5 -135.4237 717.0082)" class="st16" width="722.73" height="11.1"/>
		</g>
		<g class="st45">
			
				<rect x="203.61" y="476.87" transform="matrix(0.5 -0.866 0.866 0.5 -135.4242 730.5699)" class="st16" width="722.73" height="11.39"/>
		</g>
		<g class="st46">
			
				<rect x="215.36" y="483.51" transform="matrix(0.5 -0.866 0.866 0.5 -135.4238 744.1282)" class="st16" width="722.73" height="11.68"/>
		</g>
		<g class="st47">
			
				<rect x="227.1" y="490.14" transform="matrix(0.5 -0.866 0.866 0.5 -135.4242 757.6901)" class="st16" width="722.73" height="11.97"/>
		</g>
		<g class="st48">
			
				<rect x="238.84" y="496.78" transform="matrix(0.5 -0.866 0.866 0.5 -135.4257 771.2462)" class="st16" width="722.74" height="12.26"/>
		</g>
		<g class="st49">
			
				<rect x="250.58" y="503.41" transform="matrix(0.5 -0.866 0.866 0.5 -135.4245 784.8064)" class="st16" width="722.73" height="12.55"/>
		</g>
		<g class="st50">
			
				<rect x="262.33" y="510.05" transform="matrix(0.5 -0.866 0.866 0.5 -135.4248 798.3683)" class="st16" width="722.73" height="12.84"/>
		</g>
		<g class="st51">
			
				<rect x="274.07" y="516.68" transform="matrix(0.5 -0.866 0.866 0.5 -135.4246 811.9265)" class="st16" width="722.73" height="13.13"/>
		</g>
		<g class="st52">
			
				<rect x="285.81" y="523.32" transform="matrix(0.5 -0.866 0.866 0.5 -135.4249 825.4885)" class="st16" width="722.73" height="13.42"/>
		</g>
		<g class="st53">
			
				<rect x="297.56" y="529.95" transform="matrix(0.5 -0.866 0.866 0.5 -135.4229 839.0481)" class="st16" width="722.73" height="13.71"/>
		</g>
		<g class="st54">
			
				<rect x="309.3" y="536.59" transform="matrix(0.5 -0.866 0.866 0.5 -135.4253 852.6047)" class="st16" width="722.73" height="14"/>
		</g>
		<g class="st55">
			
				<rect x="321.04" y="543.22" transform="matrix(0.5 -0.866 0.866 0.5 -135.423 866.1683)" class="st16" width="722.73" height="14.29"/>
		</g>
		<g class="st56">
			
				<rect x="332.79" y="549.85" transform="matrix(0.5 -0.866 0.866 0.5 -135.4254 879.7247)" class="st16" width="722.73" height="14.58"/>
		</g>
		<g>
			
				<rect x="344.53" y="556.49" transform="matrix(0.5 -0.866 0.866 0.5 -135.423 893.2885)" class="st16" width="722.73" height="14.87"/>
		</g>
	</g>
</g>
<g>
	<defs>
		<path id="SVGID_15_" d="M591.88,464.11c-0.76-1.8-1.57-3.58-2.44-5.33c-8.82-17.85-22.97-33.51-41.73-44.35
			c-45.8-26.44-102.77-14.81-132.37,25.3l-6.63,10.32c2.09-3.55,4.31-6.98,6.63-10.32c-2.12,2.87-4.11,5.88-5.93,9.04
			c-0.24,0.42-0.46,0.86-0.7,1.28c-0.26,0.44-0.54,0.85-0.79,1.29c-19.77,34.25-25.75,72.67-19.66,108.84
			c7.82,46.46,35.55,89.2,79.53,114.6c7.3,4.22,14.8,7.8,22.42,10.78c68.53,26.79,147.36,4.19,191.17-55.6
			c-66.66,94.32-195.43,123.98-297.42,65.1c-31.64-18.27-57.14-43.06-75.9-71.67c-7.1-10.12-12.99-20.95-17.6-32.28
			c4.96,11.18,10.84,21.97,17.6,32.28l-17.6-32.28c-18.4-45.18-16.53-98.06,9.75-143.58c9.38-16.24,21.15-30.23,34.57-41.86
			c45.19-39.14,109.39-51.1,166.45-28.8c7.62,2.98,15.11,6.57,22.42,10.78c29.74,17.17,52.03,42.29,65.78,71.11
			C590.28,460.54,591.1,462.32,591.88,464.11c0.25,0.57,0.48,1.15,0.73,1.72c0.17,0.42,0.34,0.84,0.51,1.26
			c-0.17-0.42-0.33-0.85-0.51-1.26C592.37,465.26,592.12,464.69,591.88,464.11z"/>
	</defs>
	<clipPath id="SVGID_3_">
		<use xlink:href="#SVGID_15_"  style="overflow:visible;"/>
	</clipPath>
	<g style="clip-path:url(#SVGID_3_);">
		<g class="st15">
			<rect x="86.35" y="842.41" class="st16" width="722.73" height="2.97"/>
		</g>
		<g class="st17">
			<rect x="86.35" y="828.71" class="st16" width="722.73" height="3.27"/>
		</g>
		<g class="st18">
			<rect x="86.35" y="815" class="st16" width="722.73" height="3.55"/>
		</g>
		<g class="st19">
			<rect x="86.35" y="801.3" class="st16" width="722.73" height="3.84"/>
		</g>
		<g class="st20">
			<rect x="86.34" y="787.59" class="st16" width="722.73" height="4.13"/>
		</g>
		<g class="st21">
			<rect x="86.35" y="773.89" class="st16" width="722.73" height="4.43"/>
		</g>
		<g class="st22">
			<rect x="86.34" y="760.18" class="st16" width="722.73" height="4.72"/>
		</g>
		<g class="st23">
			<rect x="86.35" y="746.48" class="st16" width="722.73" height="5"/>
		</g>
		<g class="st24">
			<rect x="86.34" y="732.78" class="st16" width="722.74" height="5.29"/>
		</g>
		<g class="st25">
			<rect x="86.35" y="719.07" class="st16" width="722.73" height="5.59"/>
		</g>
		<g class="st26">
			<rect x="86.34" y="705.36" class="st16" width="722.74" height="5.88"/>
		</g>
		<g class="st27">
			<rect x="86.35" y="691.66" class="st16" width="722.73" height="6.17"/>
		</g>
		<g class="st28">
			<rect x="86.35" y="677.95" class="st16" width="722.73" height="6.46"/>
		</g>
		<g class="st29">
			<rect x="86.35" y="664.25" class="st16" width="722.73" height="6.75"/>
		</g>
		<g class="st30">
			<rect x="86.35" y="650.55" class="st16" width="722.73" height="7.04"/>
		</g>
		<g class="st31">
			<rect x="86.35" y="636.84" class="st16" width="722.73" height="7.33"/>
		</g>
		<g class="st32">
			<rect x="86.35" y="623.13" class="st16" width="722.73" height="7.62"/>
		</g>
		<g class="st33">
			<rect x="86.35" y="609.43" class="st16" width="722.73" height="7.91"/>
		</g>
		<g class="st34">
			<rect x="86.35" y="595.73" class="st16" width="722.73" height="8.2"/>
		</g>
		<g class="st35">
			<rect x="86.34" y="582.02" class="st16" width="722.73" height="8.49"/>
		</g>
		<g class="st36">
			<rect x="86.34" y="568.31" class="st16" width="722.73" height="8.78"/>
		</g>
		<g class="st37">
			<rect x="86.34" y="554.61" class="st16" width="722.74" height="9.07"/>
		</g>
		<g class="st38">
			<rect x="86.35" y="540.91" class="st16" width="722.73" height="9.36"/>
		</g>
		<g class="st39">
			<rect x="86.35" y="527.2" class="st16" width="722.73" height="9.64"/>
		</g>
		<g class="st40">
			<rect x="86.34" y="513.5" class="st16" width="722.73" height="9.94"/>
		</g>
		<g class="st41">
			<rect x="86.35" y="499.79" class="st16" width="722.73" height="10.23"/>
		</g>
		<g class="st42">
			<rect x="86.34" y="486.09" class="st16" width="722.73" height="10.52"/>
		</g>
		<g class="st43">
			<rect x="86.35" y="472.38" class="st16" width="722.73" height="10.8"/>
		</g>
		<g class="st44">
			<rect x="86.34" y="458.68" class="st16" width="722.73" height="11.1"/>
		</g>
		<g class="st45">
			<rect x="86.35" y="444.97" class="st16" width="722.73" height="11.39"/>
		</g>
		<g class="st46">
			<rect x="86.34" y="431.27" class="st16" width="722.73" height="11.68"/>
		</g>
		<g class="st47">
			<rect x="86.35" y="417.56" class="st16" width="722.73" height="11.97"/>
		</g>
		<g class="st48">
			<rect x="86.35" y="403.86" class="st16" width="722.74" height="12.26"/>
		</g>
		<g class="st49">
			<rect x="86.35" y="390.15" class="st16" width="722.73" height="12.55"/>
		</g>
		<g class="st50">
			<rect x="86.35" y="376.45" class="st16" width="722.73" height="12.84"/>
		</g>
		<g class="st51">
			<rect x="86.35" y="362.74" class="st16" width="722.73" height="13.13"/>
		</g>
		<g class="st52">
			<rect x="86.35" y="349.04" class="st16" width="722.73" height="13.42"/>
		</g>
		<g class="st53">
			<rect x="86.34" y="335.33" class="st16" width="722.73" height="13.71"/>
		</g>
		<g class="st54">
			<rect x="86.35" y="321.63" class="st16" width="722.73" height="14"/>
		</g>
		<g class="st55">
			<rect x="86.34" y="307.92" class="st16" width="722.73" height="14.29"/>
		</g>
		<g class="st56">
			<rect x="86.35" y="294.22" class="st16" width="722.73" height="14.58"/>
		</g>
		<g>
			<rect x="86.34" y="280.51" class="st16" width="722.73" height="14.87"/>
		</g>
	</g>
</g>
</svg>
