<?xml version="1.0" encoding="utf-8"?>
<!-- Generator: Adobe Illustrator 24.0.0, SVG Export Plug-In . SVG Version: 6.00 Build 0)  -->
<svg version="1.1" id="Layer_1" xmlns="http://www.w3.org/2000/svg" xmlns:xlink="http://www.w3.org/1999/xlink" x="0px" y="0px"
	 viewBox="0 0 1000 1000" style="enable-background:new 0 0 1000 1000;" xml:space="preserve">
<style type="text/css">
	.st0{fill:#E8FCF3;}
	.st1{fill:#FFDCDC;}
	.st2{fill:#000B7F;}
	.st3{fill:url(#SVGID_1_);}
	.st4{fill:url(#SVGID_2_);}
	.st5{fill:url(#SVGID_3_);}
	.st6{opacity:0.5;}
	.st7{fill:url(#SVGID_4_);}
	.st8{fill:url(#SVGID_5_);}
	.st9{fill:url(#SVGID_6_);}
	.st10{fill:url(#SVGID_7_);}
	.st11{fill:url(#SVGID_8_);}
	.st12{fill:url(#SVGID_9_);}
	.st13{fill:url(#SVGID_10_);}
	.st14{clip-path:url(#SVGID_12_);}
	.st15{opacity:0;}
	.st16{fill:#109EFF;}
	.st17{opacity:0.0244;}
	.st18{opacity:0.0488;}
	.st19{opacity:0.0732;}
	.st20{opacity:0.0976;}
	.st21{opacity:0.122;}
	.st22{opacity:0.1463;}
	.st23{opacity:0.1707;}
	.st24{opacity:0.1951;}
	.st25{opacity:0.2195;}
	.st26{opacity:0.2439;}
	.st27{opacity:0.2683;}
	.st28{opacity:0.2927;}
	.st29{opacity:0.3171;}
	.st30{opacity:0.3415;}
	.st31{opacity:0.3659;}
	.st32{opacity:0.3902;}
	.st33{opacity:0.4146;}
	.st34{opacity:0.439;}
	.st35{opacity:0.4634;}
	.st36{opacity:0.4878;}
	.st37{opacity:0.5122;}
	.st38{opacity:0.5366;}
	.st39{opacity:0.561;}
	.st40{opacity:0.5854;}
	.st41{opacity:0.6098;}
	.st42{opacity:0.6341;}
	.st43{opacity:0.6585;}
	.st44{opacity:0.6829;}
	.st45{opacity:0.7073;}
	.st46{opacity:0.7317;}
	.st47{opacity:0.7561;}
	.st48{opacity:0.7805;}
	.st49{opacity:0.8049;}
	.st50{opacity:0.8293;}
	.st51{opacity:0.8537;}
	.st52{opacity:0.878;}
	.st53{opacity:0.9024;}
	.st54{opacity:0.9268;}
	.st55{opacity:0.9512;}
	.st56{opacity:0.9756;}
	.st57{clip-path:url(#SVGID_14_);}
	.st58{clip-path:url(#SVGID_16_);}
	.st59{fill:url(#SVGID_17_);}
	.st60{fill:url(#SVGID_18_);}
	.st61{fill:url(#SVGID_19_);}
	.st62{fill:url(#SVGID_20_);}
	.st63{fill:url(#SVGID_21_);}
	.st64{fill:url(#SVGID_22_);}
	.st65{fill:url(#SVGID_23_);}
	.st66{fill:url(#SVGID_24_);}
	.st67{fill:url(#SVGID_25_);}
</style>
<rect y="0" class="st2" width="1000" height="1000"/>
<g>
	<linearGradient id="SVGID_1_" gradientUnits="userSpaceOnUse" x1="602.6353" y1="701.1786" x2="385.206" y2="324.5801">
		<stop  offset="0.0169" style="stop-color:#FAF3B5"/>
		<stop  offset="1" style="stop-color:#FA7E83"/>
	</linearGradient>
	<polygon class="st3" points="556.98,535.06 516.55,502.3 471.28,465.61 432.47,434.16 432.47,382.33 432.47,323.65 432.47,322.5 
		431.05,322.5 388.81,322.5 388.81,346.95 388.81,398.78 388.81,458.11 432.47,493.49 471.28,524.94 516.55,561.63 556.98,594.38 
		556.98,643.91 556.98,702.33 600.64,702.33 600.64,679.29 600.64,629.76 600.64,570.44 	"/>
	<linearGradient id="SVGID_2_" gradientUnits="userSpaceOnUse" x1="426.6548" y1="705.6879" x2="379.3051" y2="623.6757">
		<stop  offset="0.0169" style="stop-color:#FAF3B5"/>
		<stop  offset="1" style="stop-color:#FA7E83"/>
	</linearGradient>
	<polygon class="st4" points="388.81,618.19 388.81,702.33 432.47,702.33 432.47,653.57 	"/>
	<linearGradient id="SVGID_3_" gradientUnits="userSpaceOnUse" x1="357.3218" y1="697.1708" x2="280.4673" y2="564.0549">
		<stop  offset="0.0169" style="stop-color:#FAF3B5"/>
		<stop  offset="1" style="stop-color:#FA7E83"/>
	</linearGradient>
	<polygon class="st5" points="304.72,550.05 304.72,702.33 348.38,702.33 348.38,585.43 	"/>
	<linearGradient id="SVGID_4_" gradientUnits="userSpaceOnUse" x1="610.1502" y1="401.1772" x2="562.7892" y2="319.1455">
		<stop  offset="0.0169" style="stop-color:#FAF3B5"/>
		<stop  offset="1" style="stop-color:#FA7E83"/>
	</linearGradient>
	<polygon class="st7" points="600.64,406.67 600.64,322.5 556.98,322.5 556.98,371.29 	"/>
	<linearGradient id="SVGID_5_" gradientUnits="userSpaceOnUse" x1="708.3419" y1="461.1703" x2="630.6679" y2="326.6349">
		<stop  offset="0.0169" style="stop-color:#FAF3B5"/>
		<stop  offset="1" style="stop-color:#FA7E83"/>
	</linearGradient>
	<polygon class="st8" points="684.72,474.81 684.72,322.5 637.83,322.5 637.83,436.81 	"/>
	<linearGradient id="SVGID_6_" gradientUnits="userSpaceOnUse" x1="704.8687" y1="690.7005" x2="487.0352" y2="313.4019">
		<stop  offset="0.0169" style="stop-color:#FAF3B5"/>
		<stop  offset="1" style="stop-color:#FA7E83"/>
	</linearGradient>
	<polygon class="st9" points="637.83,490.07 600.64,459.93 556.98,424.55 516.55,391.79 516.55,338.53 516.55,322.5 496.77,322.5 
		471.28,322.5 471.28,355.1 471.28,413.77 516.55,450.46 556.98,483.22 600.64,518.6 637.83,548.74 637.83,600.57 637.83,659.9 
		637.83,702.33 684.72,702.33 684.72,697.9 684.72,638.57 684.72,586.74 684.72,528.07 	"/>
	<linearGradient id="SVGID_7_" gradientUnits="userSpaceOnUse" x1="500.5621" y1="711.5641" x2="283.1327" y2="334.9654">
		<stop  offset="0.0169" style="stop-color:#FAF3B5"/>
		<stop  offset="1" style="stop-color:#FA7E83"/>
	</linearGradient>
	<polygon class="st10" points="471.28,574.46 432.47,543.01 388.81,507.63 348.38,474.87 348.38,425.35 348.38,366.02 348.38,322.5 
		304.72,322.5 304.72,330.64 304.72,389.97 304.72,439.49 304.72,500.48 348.38,535.86 388.81,568.62 432.47,603.99 471.28,635.44 
		471.28,685.02 471.28,702.33 492.65,702.33 516.55,702.33 516.55,672.13 516.55,611.15 	"/>
</g>
</svg>
