<?xml version="1.0" encoding="utf-8"?>
<!-- Generator: Adobe Illustrator 24.0.0, SVG Export Plug-In . SVG Version: 6.00 Build 0)  -->
<svg version="1.1" id="Layer_1" xmlns="http://www.w3.org/2000/svg" xmlns:xlink="http://www.w3.org/1999/xlink" x="0px" y="0px"
	 viewBox="0 0 1000 1000" style="enable-background:new 0 0 1000 1000;" xml:space="preserve">
<style type="text/css">
	.st0{fill:#E8FCF3;}
	.st1{fill:#FFDCDC;}
	.st2{fill:#000B7F;}
	.st3{fill:url(#SVGID_1_);}
	.st4{fill:url(#SVGID_2_);}
	.st5{fill:url(#SVGID_3_);}
	.st6{opacity:0.5;}
	.st7{fill:url(#SVGID_4_);}
	.st8{fill:url(#SVGID_5_);}
	.st9{fill:url(#SVGID_6_);}
	.st10{fill:url(#SVGID_7_);}
	.st11{fill:url(#SVGID_8_);}
	.st12{fill:url(#SVGID_9_);}
	.st13{fill:url(#SVGID_10_);}
	.st14{clip-path:url(#SVGID_12_);}
	.st15{opacity:0;}
	.st16{fill:#109EFF;}
	.st17{opacity:0.0244;}
	.st18{opacity:0.0488;}
	.st19{opacity:0.0732;}
	.st20{opacity:0.0976;}
	.st21{opacity:0.122;}
	.st22{opacity:0.1463;}
	.st23{opacity:0.1707;}
	.st24{opacity:0.1951;}
	.st25{opacity:0.2195;}
	.st26{opacity:0.2439;}
	.st27{opacity:0.2683;}
	.st28{opacity:0.2927;}
	.st29{opacity:0.3171;}
	.st30{opacity:0.3415;}
	.st31{opacity:0.3659;}
	.st32{opacity:0.3902;}
	.st33{opacity:0.4146;}
	.st34{opacity:0.439;}
	.st35{opacity:0.4634;}
	.st36{opacity:0.4878;}
	.st37{opacity:0.5122;}
	.st38{opacity:0.5366;}
	.st39{opacity:0.561;}
	.st40{opacity:0.5854;}
	.st41{opacity:0.6098;}
	.st42{opacity:0.6341;}
	.st43{opacity:0.6585;}
	.st44{opacity:0.6829;}
	.st45{opacity:0.7073;}
	.st46{opacity:0.7317;}
	.st47{opacity:0.7561;}
	.st48{opacity:0.7805;}
	.st49{opacity:0.8049;}
	.st50{opacity:0.8293;}
	.st51{opacity:0.8537;}
	.st52{opacity:0.878;}
	.st53{opacity:0.9024;}
	.st54{opacity:0.9268;}
	.st55{opacity:0.9512;}
	.st56{opacity:0.9756;}
	.st57{clip-path:url(#SVGID_14_);}
	.st58{clip-path:url(#SVGID_16_);}
	.st59{fill:url(#SVGID_17_);}
	.st60{fill:url(#SVGID_18_);}
	.st61{fill:url(#SVGID_19_);}
	.st62{fill:url(#SVGID_20_);}
	.st63{fill:url(#SVGID_21_);}
	.st64{fill:url(#SVGID_22_);}
	.st65{fill:url(#SVGID_23_);}
	.st66{fill:url(#SVGID_24_);}
	.st67{fill:url(#SVGID_25_);}
</style>
<rect y="0" class="st0" width="1000" height="1000"/>
<g>
	<linearGradient id="SVGID_1_" gradientUnits="userSpaceOnUse" x1="404.8941" y1="708.606" x2="406.6378" y2="708.606">
		<stop  offset="0" style="stop-color:#000B7F;stop-opacity:0.5"/>
		<stop  offset="0.2821" style="stop-color:#B0AAFF;stop-opacity:0.51"/>
		<stop  offset="0.6508" style="stop-color:#FFE9E9;stop-opacity:0.79"/>
		<stop  offset="1" style="stop-color:#FCFFBF"/>
	</linearGradient>
	<path class="st3" d="M404.89,708.63h1.74c-0.58,0-1.16-0.02-1.74-0.04V708.63z"/>
	<linearGradient id="SVGID_2_" gradientUnits="userSpaceOnUse" x1="309.5974" y1="490.1519" x2="689.5974" y2="490.1519">
		<stop  offset="0" style="stop-color:#000B7F;stop-opacity:0.5"/>
		<stop  offset="0.2821" style="stop-color:#B0AAFF;stop-opacity:0.51"/>
		<stop  offset="0.6508" style="stop-color:#FFE9E9;stop-opacity:0.79"/>
		<stop  offset="1" style="stop-color:#FCFFBF"/>
	</linearGradient>
	<path class="st4" d="M664.18,663.43l-24.12-44.69l-19-35.21l-1.21-2.24l-12.63-23.4c9.28-6.09,17.88-13.14,25.65-21.01
		c11.15-11.29,20.61-24.27,27.94-38.51c7.48-14.52,12.75-30.36,15.39-47.07c0.51-3.21,0.91-6.46,1.22-9.73
		c0.46-4.91,0.71-9.88,0.71-14.91c0-0.07,0-0.15,0-0.22c-0.01-8.46-0.7-16.76-2-24.86c-2.69-16.72-8.01-32.56-15.54-47.07
		c-7.4-14.26-16.91-27.23-28.14-38.51c-28.41-28.54-67.73-46.21-111.19-46.21h-69.53h-6.09h-45.37h-3.39h-32.49h-8.13h-46.62V316
		v208.78c12.09-13.03,28.33-22.14,46.62-25.24c0.96-0.16,1.92-0.31,2.88-0.44c3.6-0.48,7.27-0.73,11-0.73h11.57h18.56h24.5h12.69
		h8.18h32.53h33.67h9.01l-0.3-0.54c16.71-2.02,31.65-9.76,42.81-21.21c6.97-7.16,12.47-15.75,15.99-25.31
		c2.85-7.75,4.42-16.12,4.42-24.86s-1.56-17.11-4.42-24.86c-10.12-27.47-36.53-47.07-67.51-47.07h-14.38h-51.82h-2.8h-5.37h-30.9
		h-6.29v47.07v24.86v23.29v1.57h-33.95h-10.07v-24.28c0.04-0.19,0.07-0.39,0.11-0.58h-0.11v-24.86v-39.23v-7.84V316h31.14h12.88
		h9.81h11.87h12.96h10.73h31.04h44.59c33.52,0,63.55,14.94,83.8,38.51c11.44,13.31,19.76,29.38,23.83,47.07
		c1.84,7.99,2.81,16.31,2.81,24.86s-0.97,16.87-2.81,24.86c-4.07,17.69-12.39,33.76-23.83,47.07c-5.92,6.89-12.66,13.03-20.09,18.29
		c-12.94,9.16-27.94,15.6-44.17,18.5c-6.34,1.13-12.87,1.72-19.54,1.72h-23.93h-51.7h-1.47h-4.21h-30.31h-9.38h-12.28
		c-4.33,0-8.57,0.36-12.71,1.03c-6.66,1.09-13.04,3.01-19.03,5.67c-17.78,7.88-32.07,22.18-39.95,39.95
		c-4.06,9.16-6.42,19.23-6.67,29.83c-0.02,0.63-0.02,1.26-0.02,1.9s0.01,1.27,0.02,1.9v19.86v73.5h46.62h44.01H402h43.62V678.6
		v-10.23v-4.94v-12.5v-32.19v-4.46v-11.2v-19.55h6.99h7.05h7.98l16.29,32.34l1.45,2.87l22.51,44.69l23.72,47.09h52.14h52.14h53.7
		L664.18,663.43z M454.73,451.3h-9.1v-18.29v-6.57v-24.86h22.72h41.34c6.37,0,12.19,2.4,16.59,6.35c4.21,3.78,7.13,8.96,8,14.82
		c0.18,1.2,0.27,2.44,0.27,3.69c0,13.73-11.13,24.86-24.86,24.86h-14.38H454.73z M354.49,662.66c0.77-42.89-12.26-72,45.96-72
		c-0.1,17.16-0.65,40.49-0.19,57.64c0,0,0,9.45,0,9.45v5.67 M560.32,663.43l-22.24-44.69l-0.58-1.17l-16.94-34.04h0.71
		c14.76,0,29.05-2.04,42.6-5.86l3.18,5.86l12.26,22.6l6.84,12.61l24.24,44.69H560.32z"/>
</g>
</svg>
